<svg version="1.1" id="Layer_1" xmlns="http://www.w3.org/2000/svg" xmlns:xlink="http://www.w3.org/1999/xlink" x="0px" y="0px"
	 width="100%" viewBox="0 0 500 86" enable-background="new 0 0 500 86" xml:space="preserve">
<path fill="#040404"  opacity="1.000000" stroke="none" 
	d="
M1.000000,86.000000 
	C1.000000,57.685169 1.000000,29.370342 1.000003,1.057160 
	C167.666672,1.058808 334.333344,1.058808 501.000000,1.058808 
	C501.000000,29.099306 501.000000,57.080994 500.541962,85.459991 
	C416.819885,85.852646 333.555847,85.846230 250.291794,85.843857 
	C169.022705,85.841537 87.753609,85.842331 6.484518,85.849899 
	C4.656341,85.850067 2.828172,85.947784 1.000000,86.000000 
M261.005554,34.500000 
	C261.005554,49.949924 261.005554,65.399849 261.005554,80.785988 
	C339.852509,80.785988 418.219940,80.785988 496.604919,80.785988 
	C496.604919,55.636200 496.604919,30.861105 496.604919,5.802308 
	C418.025024,5.802308 339.665222,5.802308 261.005554,5.802308 
	C261.005554,15.209783 261.005554,24.354891 261.005554,34.500000 
M97.167336,41.645691 
	C97.441536,43.445549 97.506866,45.308208 98.025909,47.034439 
	C100.338860,54.726742 107.998886,59.120239 116.989334,58.044853 
	C124.701057,57.122414 130.741379,50.642834 131.032516,42.980412 
	C131.343933,34.784348 126.235031,28.148846 118.214027,26.331629 
	C107.955872,24.007566 99.483910,29.851368 97.167336,41.645691 
M162.448456,49.362350 
	C162.562286,44.908680 160.222198,42.250366 156.203003,40.813782 
	C153.864151,39.977810 151.320206,39.465389 149.260880,38.179203 
	C147.694839,37.201107 146.747086,35.233124 145.524231,33.705570 
	C147.307816,32.815723 149.128036,31.132143 150.866852,31.212399 
	C153.864838,31.350767 156.812225,32.586220 160.100250,33.444702 
	C160.683350,32.075081 161.292786,30.643604 161.940704,29.121780 
	C156.321045,25.762028 150.756378,24.907686 144.921204,27.000673 
	C141.291748,28.302505 138.621994,31.222389 139.436813,34.904392 
	C140.052765,37.687706 142.533356,40.399582 144.849670,42.354702 
	C146.621994,43.850655 149.670929,43.741455 151.714279,45.036789 
	C153.520660,46.181908 154.722397,48.280872 156.191101,49.958691 
	C154.153992,50.980026 151.986816,53.037544 150.107529,52.801651 
	C146.473160,52.345448 143.001068,50.596581 139.258820,49.313980 
	C138.809982,50.333797 138.225876,51.660995 137.092285,54.236691 
	C141.612030,55.621300 145.662247,57.569336 149.865723,57.991489 
	C156.970123,58.704975 160.549576,56.020630 162.448456,49.362350 
M188.382660,26.075249 
	C181.925140,26.075249 175.467606,26.075249 168.939133,26.075249 
	C168.939133,27.938248 168.939133,29.326576 168.939133,31.155285 
	C172.283279,31.155285 175.364868,31.155285 178.879425,31.155285 
	C178.879425,40.325401 178.879425,49.054680 178.879425,58.062252 
	C180.908142,57.943375 182.455994,57.852673 184.214783,57.749615 
	C184.214783,48.656631 184.214783,40.042320 184.214783,31.042974 
	C187.536835,31.042974 190.626343,31.042974 193.930817,31.042974 
	C193.930817,29.263771 193.930817,27.875866 193.930817,26.075251 
	C192.277435,26.075251 190.814468,26.075251 188.382660,26.075249 
M71.949432,35.542141 
	C71.949432,42.952374 71.949432,50.362602 71.949432,57.781319 
	C78.613838,57.781319 84.700058,57.781319 90.820206,57.781319 
	C90.820206,56.170006 90.820206,54.777672 90.820206,53.029846 
	C86.314407,53.029846 82.053658,53.029846 77.319374,53.029846 
	C77.319374,43.959755 77.319374,35.235512 77.319374,26.365768 
	C75.301056,26.365768 73.766670,26.365768 71.949432,26.365768 
	C71.949432,29.285162 71.949432,31.921158 71.949432,35.542141 
z"/>
<path fill="#FFFFFF" opacity="1.000000" stroke="none" 
	d="
M1.000000,86.500000 
	C2.828172,85.947784 4.656341,85.850067 6.484518,85.849899 
	C87.753609,85.842331 169.022705,85.841537 250.291794,85.843857 
	C333.555847,85.846230 416.819885,85.852646 500.541962,85.928650 
	C499.666656,86.333336 498.334045,86.954079 496.999908,86.957336 
	C473.000031,87.015984 449.000000,87.000000 425.000000,87.000000 
	C283.666656,87.000000 142.333328,87.000000 1.000000,86.500000 
z"/>
<path fill="#FEFEFE" opacity="1.000000" stroke="none" 
	d="
M261.005554,34.000000 
	C261.005554,24.354891 261.005554,15.209783 261.005554,5.802308 
	C339.665222,5.802308 418.025024,5.802308 496.604919,5.802308 
	C496.604919,30.861105 496.604919,55.636200 496.604919,80.785988 
	C418.219940,80.785988 339.852509,80.785988 261.005554,80.785988 
	C261.005554,65.399849 261.005554,49.949924 261.005554,34.000000 
M421.839966,27.794880 
	C421.839966,34.358738 421.839966,40.922592 421.839966,49.034290 
	C416.260895,41.570007 411.486725,35.462521 407.048889,29.119684 
	C405.019379,26.218975 402.830780,25.344694 399.557129,26.606276 
	C399.557129,37.020782 399.557129,47.295578 399.557129,57.796116 
	C401.332306,57.796116 402.909424,57.796116 405.031677,57.796116 
	C405.031677,50.645390 405.031677,43.635323 405.031677,35.506218 
	C410.206421,42.480366 414.746643,48.377277 419.022583,54.459946 
	C421.028473,57.313332 423.127930,59.081085 426.790222,57.611832 
	C426.790222,47.212738 426.790222,36.799938 426.790222,25.819513 
	C424.967407,26.213715 423.468018,26.537973 421.839966,27.794880 
M439.090637,44.491318 
	C439.090637,48.922733 439.090637,53.354153 439.090637,57.981716 
	C444.345490,57.981716 449.002411,58.189831 453.634186,57.936852 
	C462.322601,57.462292 468.608673,50.887844 468.804047,42.401192 
	C468.994415,34.131855 463.292816,27.251450 454.789764,26.332903 
	C449.741669,25.787584 444.586578,26.233067 439.090637,26.233067 
	C439.090637,32.238495 439.090637,37.867176 439.090637,44.491318 
M338.734833,26.404488 
	C327.475220,25.027256 318.923523,30.596764 317.953949,39.938606 
	C317.041718,48.727505 322.557190,56.370335 330.932373,57.922924 
	C340.100067,59.622433 348.925476,54.554390 351.001068,46.398418 
	C353.279358,37.445808 348.925507,29.969011 338.734833,26.404488 
M365.781708,44.141853 
	C365.781708,38.198730 365.781708,32.255608 365.781708,25.981619 
	C363.574402,26.140512 362.010864,26.253065 360.232452,26.381084 
	C360.232452,32.923481 360.212524,39.064083 360.252716,45.204292 
	C360.259155,46.190632 360.482269,47.186409 360.692932,48.158813 
	C362.179199,55.018322 367.156250,58.431644 375.185699,58.124886 
	C382.262360,57.854527 387.341980,53.817719 387.795837,47.131248 
	C388.265686,40.209206 387.900391,33.230473 387.900391,25.989275 
	C385.961090,26.137156 384.420441,26.254639 382.673187,26.387877 
	C382.673187,32.605042 382.800049,38.425362 382.637970,44.237629 
	C382.471741,50.199810 379.919128,52.988255 374.839844,53.242336 
	C369.303192,53.519295 366.660065,51.121033 365.781708,44.141853 
M295.864075,57.092648 
	C295.864075,53.154644 295.864075,49.216640 295.864075,45.002769 
	C300.883820,45.002769 305.325500,45.002769 309.841736,45.002769 
	C309.841736,43.186573 309.841736,41.671173 309.841736,39.823029 
	C305.006775,39.823029 300.570404,39.823029 296.202026,39.823029 
	C296.202026,36.740749 296.202026,34.004559 296.202026,30.838932 
	C301.571106,30.838932 306.660461,30.838932 312.049011,30.838932 
	C311.840759,28.977356 311.685699,27.591568 311.542877,26.314999 
	C304.348999,26.314999 297.582031,26.314999 290.619324,26.314999 
	C290.619324,36.972202 290.619324,47.374210 290.619324,57.854973 
	C292.386017,57.854973 293.869080,57.854973 295.864075,57.092648 
z"/>
<path fill="#F2F2F2" opacity="1.000000" stroke="none" 
	d="
M97.185410,41.234989 
	C99.483910,29.851368 107.955872,24.007566 118.214027,26.331629 
	C126.235031,28.148846 131.343933,34.784348 131.032516,42.980412 
	C130.741379,50.642834 124.701057,57.122414 116.989334,58.044853 
	C107.998886,59.120239 100.338860,54.726742 98.025909,47.034439 
	C97.506866,45.308208 97.441536,43.445549 97.185410,41.234989 
M103.027092,40.002853 
	C102.999176,40.999531 102.874947,42.004410 102.959045,42.991543 
	C103.488426,49.205166 108.477631,53.459499 114.852913,53.182632 
	C120.845840,52.922371 125.332253,48.188862 125.346863,42.110710 
	C125.359413,36.889149 121.843803,32.368038 116.847328,31.180214 
	C111.113991,29.817219 106.113152,32.748096 103.027092,40.002853 
z"/>
<path fill="#F4F4F4" opacity="1.000000" stroke="none" 
	d="
M162.397446,49.730919 
	C160.549576,56.020630 156.970123,58.704975 149.865723,57.991489 
	C145.662247,57.569336 141.612030,55.621300 137.092285,54.236691 
	C138.225876,51.660995 138.809982,50.333797 139.258820,49.313980 
	C143.001068,50.596581 146.473160,52.345448 150.107529,52.801651 
	C151.986816,53.037544 154.153992,50.980026 156.191101,49.958694 
	C154.722397,48.280872 153.520660,46.181908 151.714279,45.036789 
	C149.670929,43.741455 146.621994,43.850655 144.849670,42.354702 
	C142.533356,40.399582 140.052765,37.687706 139.436813,34.904392 
	C138.621994,31.222389 141.291748,28.302505 144.921204,27.000673 
	C150.756378,24.907686 156.321045,25.762028 161.940704,29.121780 
	C161.292786,30.643604 160.683350,32.075081 160.100250,33.444702 
	C156.812225,32.586220 153.864838,31.350767 150.866852,31.212399 
	C149.128036,31.132143 147.307816,32.815723 145.524231,33.705570 
	C146.747086,35.233124 147.694839,37.201107 149.260880,38.179203 
	C151.320206,39.465389 153.864151,39.977810 156.203003,40.813782 
	C160.222198,42.250366 162.562286,44.908680 162.397446,49.730919 
z"/>
<path fill="#FBFBFB" opacity="1.000000" stroke="none" 
	d="
M188.867065,26.075249 
	C190.814468,26.075251 192.277435,26.075251 193.930817,26.075251 
	C193.930817,27.875866 193.930817,29.263771 193.930817,31.042974 
	C190.626343,31.042974 187.536835,31.042974 184.214783,31.042974 
	C184.214783,40.042320 184.214783,48.656631 184.214783,57.749615 
	C182.455994,57.852673 180.908142,57.943375 178.879425,58.062252 
	C178.879425,49.054680 178.879425,40.325401 178.879425,31.155285 
	C175.364868,31.155285 172.283279,31.155285 168.939133,31.155285 
	C168.939133,29.326576 168.939133,27.938248 168.939133,26.075249 
	C175.467606,26.075249 181.925140,26.075249 188.867065,26.075249 
z"/>
<path fill="#FDFDFD" opacity="1.000000" stroke="none" 
	d="
M71.949432,35.049648 
	C71.949432,31.921158 71.949432,29.285162 71.949432,26.365768 
	C73.766670,26.365768 75.301056,26.365768 77.319374,26.365768 
	C77.319374,35.235512 77.319374,43.959755 77.319374,53.029846 
	C82.053658,53.029846 86.314407,53.029846 90.820206,53.029846 
	C90.820206,54.777672 90.820206,56.170006 90.820206,57.781319 
	C84.700058,57.781319 78.613838,57.781319 71.949432,57.781319 
	C71.949432,50.362602 71.949432,42.952374 71.949432,35.049648 
z"/>
<path fill="#0E0E0E" opacity="1.000000" stroke="none" 
	d="
M421.904297,27.328556 
	C423.468018,26.537973 424.967407,26.213715 426.790222,25.819513 
	C426.790222,36.799938 426.790222,47.212738 426.790222,57.611832 
	C423.127930,59.081085 421.028473,57.313332 419.022583,54.459946 
	C414.746643,48.377277 410.206421,42.480366 405.031677,35.506218 
	C405.031677,43.635323 405.031677,50.645390 405.031677,57.796116 
	C402.909424,57.796116 401.332306,57.796116 399.557129,57.796116 
	C399.557129,47.295578 399.557129,37.020782 399.557129,26.606276 
	C402.830780,25.344694 405.019379,26.218975 407.048889,29.119684 
	C411.486725,35.462521 416.260895,41.570007 421.839966,49.034290 
	C421.839966,40.922592 421.839966,34.358738 421.904297,27.328556 
z"/>
<path fill="#121212" opacity="1.000000" stroke="none" 
	d="
M439.090637,43.993591 
	C439.090637,37.867176 439.090637,32.238495 439.090637,26.233067 
	C444.586578,26.233067 449.741669,25.787584 454.789764,26.332903 
	C463.292816,27.251450 468.994415,34.131855 468.804047,42.401192 
	C468.608673,50.887844 462.322601,57.462292 453.634186,57.936852 
	C449.002411,58.189831 444.345490,57.981716 439.090637,57.981716 
	C439.090637,53.354153 439.090637,48.922733 439.090637,43.993591 
M453.895782,52.990776 
	C461.176971,51.035591 464.572052,45.745857 462.866791,39.013382 
	C461.194366,32.410305 454.658081,29.715626 444.907745,31.573015 
	C444.907745,38.633762 444.907745,45.680210 444.907745,53.043236 
	C447.775726,53.043236 450.392578,53.043236 453.895782,52.990776 
z"/>
<path fill="#0C0C0C" opacity="1.000000" stroke="none" 
	d="
M339.123505,26.536558 
	C348.925507,29.969011 353.279358,37.445808 351.001068,46.398418 
	C348.925476,54.554390 340.100067,59.622433 330.932373,57.922924 
	C322.557190,56.370335 317.041718,48.727505 317.953949,39.938606 
	C318.923523,30.596764 327.475220,25.027256 339.123505,26.536558 
M334.523651,30.934490 
	C326.106262,31.018505 322.393829,38.900730 323.388275,43.891533 
	C324.562683,49.785618 329.504730,53.637257 335.628815,53.235146 
	C341.158325,52.872074 345.568085,48.486237 345.962341,42.957615 
	C346.417267,36.578426 342.513977,32.166451 334.523651,30.934490 
z"/>
<path fill="#0F0F0F" opacity="1.000000" stroke="none" 
	d="
M365.795593,44.595177 
	C366.660065,51.121033 369.303192,53.519295 374.839844,53.242336 
	C379.919128,52.988255 382.471741,50.199810 382.637970,44.237629 
	C382.800049,38.425362 382.673187,32.605042 382.673187,26.387877 
	C384.420441,26.254639 385.961090,26.137156 387.900391,25.989275 
	C387.900391,33.230473 388.265686,40.209206 387.795837,47.131248 
	C387.341980,53.817719 382.262360,57.854527 375.185699,58.124886 
	C367.156250,58.431644 362.179199,55.018322 360.692932,48.158813 
	C360.482269,47.186409 360.259155,46.190632 360.252716,45.204292 
	C360.212524,39.064083 360.232452,32.923481 360.232452,26.381084 
	C362.010864,26.253065 363.574402,26.140512 365.781708,25.981619 
	C365.781708,32.255608 365.781708,38.198730 365.795593,44.595177 
z"/>
<path fill="#141414" opacity="1.000000" stroke="none" 
	d="
M295.608093,57.473808 
	C293.869080,57.854973 292.386017,57.854973 290.619324,57.854973 
	C290.619324,47.374210 290.619324,36.972202 290.619324,26.314999 
	C297.582031,26.314999 304.348999,26.314999 311.542877,26.314999 
	C311.685699,27.591568 311.840759,28.977356 312.049011,30.838932 
	C306.660461,30.838932 301.571106,30.838932 296.202026,30.838932 
	C296.202026,34.004559 296.202026,36.740749 296.202026,39.823029 
	C300.570404,39.823029 305.006775,39.823029 309.841736,39.823029 
	C309.841736,41.671173 309.841736,43.186573 309.841736,45.002769 
	C305.325500,45.002769 300.883820,45.002769 295.864075,45.002769 
	C295.864075,49.216640 295.864075,53.154644 295.608093,57.473808 
z"/>
<path fill="#040404" opacity="1.000000" stroke="none" 
	d="
M103.091522,39.603630 
	C106.113152,32.748096 111.113991,29.817219 116.847328,31.180214 
	C121.843803,32.368038 125.359413,36.889149 125.346863,42.110710 
	C125.332253,48.188862 120.845840,52.922371 114.852913,53.182632 
	C108.477631,53.459499 103.488426,49.205166 102.959045,42.991543 
	C102.874947,42.004410 102.999176,40.999531 103.091522,39.603630 
z"/>
<path fill="#FDFDFD" opacity="1.000000" stroke="none" 
	d="
M453.452576,53.017006 
	C450.392578,53.043236 447.775726,53.043236 444.907745,53.043236 
	C444.907745,45.680210 444.907745,38.633762 444.907745,31.573015 
	C454.658081,29.715626 461.194366,32.410305 462.866791,39.013382 
	C464.572052,45.745857 461.176971,51.035591 453.452576,53.017006 
z"/>
<path fill="#F9F9F9" opacity="1.000000" stroke="none" 
	d="
M334.933838,30.944933 
	C342.513977,32.166451 346.417267,36.578426 345.962341,42.957615 
	C345.568085,48.486237 341.158325,52.872074 335.628815,53.235146 
	C329.504730,53.637257 324.562683,49.785618 323.388275,43.891533 
	C322.393829,38.900730 326.106262,31.018505 334.933838,30.944933 
z"/>
</svg>